<svg width="42" height="42" viewBox="0 0 42 42" fill="none" xmlns="http://www.w3.org/2000/svg">
<path d="M26.25 19.25V8.75L21 3.5L15.75 8.75V12.25H5.25V36.75H36.75V19.25H26.25ZM12.25 33.25H8.75V29.75H12.25V33.25ZM12.25 26.25H8.75V22.75H12.25V26.25ZM12.25 19.25H8.75V15.75H12.25V19.25ZM22.75 33.25H19.25V29.75H22.75V33.25ZM22.75 26.25H19.25V22.75H22.75V26.25ZM22.75 19.25H19.25V15.75H22.75V19.25ZM22.75 12.25H19.25V8.75H22.75V12.25ZM33.25 33.25H29.75V29.75H33.25V33.25ZM33.25 26.25H29.75V22.75H33.25V26.25Z" fill="#FBC108"/>
</svg>
