<svg width="54" height="54" viewBox="0 0 54 54" fill="none" xmlns="http://www.w3.org/2000/svg">
<path d="M43.875 7.875L40.5 4.5L37.125 7.875L33.75 4.5L30.375 7.875L27 4.5L23.625 7.875L20.25 4.5L16.875 7.875L13.5 4.5V36H6.75V42.75C6.75 46.485 9.765 49.5 13.5 49.5H40.5C44.235 49.5 47.25 46.485 47.25 42.75V4.5L43.875 7.875ZM33.75 45H13.5C12.2625 45 11.25 43.9875 11.25 42.75V40.5H33.75V45ZM42.75 42.75C42.75 43.9875 41.7375 45 40.5 45C39.2625 45 38.25 43.9875 38.25 42.75V36H18V11.25H42.75V42.75Z" fill="#072F54"/>
<path d="M33.75 15.75H20.25V20.25H33.75V15.75Z" fill="#072F54"/>
<path d="M40.5 15.75H36V20.25H40.5V15.75Z" fill="#072F54"/>
<path d="M33.75 22.5H20.25V27H33.75V22.5Z" fill="#072F54"/>
<path d="M40.5 22.5H36V27H40.5V22.5Z" fill="#072F54"/>
</svg>
