<svg width="54" height="54" viewBox="0 0 54 54" fill="none" xmlns="http://www.w3.org/2000/svg">
<path d="M42.75 31.5V13.5C42.75 11.025 40.725 9 38.25 9H6.75C4.275 9 2.25 11.025 2.25 13.5V31.5C2.25 33.975 4.275 36 6.75 36H38.25C40.725 36 42.75 33.975 42.75 31.5ZM38.25 31.5H6.75V13.5H38.25V31.5ZM22.5 15.75C18.765 15.75 15.75 18.765 15.75 22.5C15.75 26.235 18.765 29.25 22.5 29.25C26.235 29.25 29.25 26.235 29.25 22.5C29.25 18.765 26.235 15.75 22.5 15.75ZM51.75 15.75V40.5C51.75 42.975 49.725 45 47.25 45H9C9 42.75 9 42.975 9 40.5H47.25V15.75C49.725 15.75 49.5 15.75 51.75 15.75Z" fill="#072F54"/>
</svg>
