<svg width="24" height="22" viewBox="0 0 24 22" fill="none" xmlns="http://www.w3.org/2000/svg">
<path d="M21.2267 2.01335C20.96 1.22669 20.2133 0.666687 19.3333 0.666687H4.66667C3.78667 0.666687 3.05333 1.22669 2.77333 2.01335L0 10V20.6667C0 21.4 0.6 22 1.33333 22H2.66667C3.4 22 4 21.4 4 20.6667V19.3334H20V20.6667C20 21.4 20.6 22 21.3333 22H22.6667C23.4 22 24 21.4 24 20.6667V10L21.2267 2.01335ZM5.13333 3.33335H18.8533L20.24 7.33335H3.74667L5.13333 3.33335ZM21.3333 16.6667H2.66667V10H21.3333V16.6667Z" fill="#989898"/>
</svg>
